<svg version="1.1" xmlns="http://www.w3.org/2000/svg" xmlns:xlink="http://www.w3.org/1999/xlink" preserveAspectRatio="xMidYMid meet" viewBox="628 274 325 114"><g data-item-type="text" data-item="Business" id="logo__item--business" class="logo__item">
                <g class="logo__item__inner" transform="translate(749.53125 345.57480251808073) scale(1 1) rotate(0 0 0)">
                    <text data-part-id="logo__item--business" dy="0" dominant-baseline="auto" alignment-baseline="auto" font-family="Raleway" font-size="32px" fill="#4EB751" letter-spacing="0" font-weight="normal" font-style="normal" data-font-family="Raleway" data-font-weight="normal" data-font-style="normal" data-ttf-url="/builder_assets/fontsttf/font-montserrat-bold-normal.ttf" data-font-filename="raleway-normal-normal">Esl Evaluation</text>
                </g>
            </g><g data-item-type="image" data-item="Image" data-logo-item="" id="logo__item--logo_0" class="logo__item">
    <g class="logo__item__inner" transform="translate(622.423822685044 268.5) scale(0.8310249658737803 0.8310249658737803) rotate(0 0 0)">
        
<g>
	<path fill="#4EB751" d="M127.9,63.1l-16,27.2c-3.8,6.4-7.6,10.5-11.4,12.3c-2.9,1.3-5.8,1.9-8.5,1.7c-2.7-0.2-6.7-1.3-11.9-3.3   l-1.3-0.5c-3.4-0.5-6.1-0.5-8,0.2c-1.7,0.6-3.2,1.6-4.5,2.9c-0.9,0.9-1.9,2.3-2.9,4.1l-11.8,20.1c11.8,5.4,25.5,6.8,39,3   c29-8.2,46.4-37.4,40.4-66.4L127.9,63.1z" data-part-id="logo__item--logo_0__0"></path>
	<path fill="#1D73B5" d="M27.4,78.2l1.3,0.5c3.4,0.6,6.1,0.5,8-0.2c1.7-0.6,3.2-1.6,4.5-2.9c0.9-0.9,1.8-2.3,2.9-4.1l20.2-34.4   l-3.9-1.5l16-3.3l7,12.2l-4-1.5l-16,27.2c-3.8,6.4-7.6,10.5-11.4,12.3c-2.9,1.3-5.7,1.9-8.4,1.7c-2.7-0.2-6.7-1.3-11.9-3.3   l-1.3-0.5c-3.4-0.5-6.1-0.5-8,0.2c-1.4,0.5-2.6,1.2-3.7,2.2c0.4,2.8,0.9,5.7,1.7,8.6c0.6,2.1,1.3,4.1,2.1,6   c3.5-5.5,6.9-9.1,10.5-10.7c2.9-1.3,5.7-1.9,8.4-1.7c2.7,0.2,6.7,1.3,11.9,3.3l1.3,0.5c3.4,0.6,6.1,0.5,8-0.2   c1.8-0.6,3.2-1.6,4.5-2.9c0.9-0.9,1.9-2.3,2.9-4.1l20.2-34.4l-3.9-1.5l16-3.3l7,12.2l-4-1.5l-16,27.2c-3.8,6.4-7.6,10.5-11.4,12.3   c-2.9,1.3-5.8,1.9-8.4,1.7c-2.7-0.2-6.7-1.3-11.9-3.3l-1.3-0.5c-3.5-0.6-6.1-0.5-8,0.2c-1.8,0.6-3.2,1.6-4.5,2.9   c-0.9,0.9-1.9,2.3-2.9,4.1l-9,15.3c2,2.3,4.1,4.4,6.4,6.4l5.9-10.1c3.8-6.4,7.6-10.5,11.4-12.3c2.9-1.3,5.7-1.9,8.5-1.7   c2.7,0.2,6.7,1.3,11.9,3.3l1.3,0.5c3.5,0.6,6.1,0.5,8-0.2c1.8-0.6,3.2-1.6,4.5-2.9c0.9-0.9,1.9-2.3,2.9-4.1l20.3-34.4l-4-1.5   l16-3.3l5.7,10c-0.2-0.7-0.3-1.3-0.5-2c-8.5-30.3-40-48-70.3-39.4c-25,7-41.3,29.6-41.6,54.3C20.7,75.9,23.8,76.8,27.4,78.2z" data-part-id="logo__item--logo_0__1"></path>
	<path fill="#01528F" d="M137.8,58.4c-9.7-34.5-45.6-54.6-80.1-44.9C23.2,23.1,3.1,59,12.8,93.5c9.7,34.5,45.6,54.6,80.1,44.9   C127.3,128.8,147.5,92.8,137.8,58.4z M17.3,92.2c-9-32,9.7-65.3,41.7-74.3c32-9,65.3,9.7,74.3,41.7c9,32-9.7,65.3-41.7,74.3   C59.6,142.9,26.3,124.2,17.3,92.2z" data-part-id="logo__item--logo_0__2"></path>
</g>

    </g>
</g></svg>
