<?xml version="1.0" encoding="UTF-8" standalone="no"?>
<!DOCTYPE svg PUBLIC "-//W3C//DTD SVG 1.1//EN" "http://www.w3.org/Graphics/SVG/1.1/DTD/svg11.dtd">
<svg width="100%" height="100%" viewBox="0 0 2480 819" version="1.1" xmlns="http://www.w3.org/2000/svg" xmlns:xlink="http://www.w3.org/1999/xlink" xml:space="preserve" style="fill-rule:evenodd;clip-rule:evenodd;stroke-linejoin:round;stroke-miterlimit:1.41421;">
    <g transform="matrix(1,0,0,1,4.80129,-2685.44)">
        <g transform="matrix(-8.69851,0.00585135,-0.00546602,-5.51692,5171.94,3744.01)">
            <path d="M687.54,144.242C685.345,145.387 596.714,118.709 501.669,89.574C500.165,89.113 498.686,87.907 497.154,88.189C452.956,96.322 412.091,103.861 377.09,110.328C304.838,123.676 257.575,132.455 257.575,132.455C257.575,132.455 109.233,-164.284 109.233,-164.284L687.54,144.242Z" style="fill:rgb(252,221,97);fill-rule:nonzero;"/>
        </g>
        <g transform="matrix(-8.69851,0.0071013,-0.00546602,-6.69543,5171.94,3550.26)">
            <path d="M687.54,144.242L244.586,-190.657L109.233,-164.284L687.54,144.242Z" style="fill:rgb(247,147,69);fill-rule:nonzero;"/>
        </g>
        <g transform="matrix(-8.69851,0.0071013,-0.00546602,-6.69543,5171.94,3550.26)">
            <path d="M687.54,144.242L424.046,-244.681L244.586,-190.657L687.54,144.242Z" style="fill:rgb(244,119,68);fill-rule:nonzero;"/>
        </g>
        <g transform="matrix(-8.69851,0.0071013,-0.00546602,-6.69543,5171.94,3550.26)">
            <path d="M593.866,-22.702C592.352,-18.182 498.939,85.141 498.939,85.141L580.509,68.125L593.866,-22.702Z" style="fill:rgb(93,197,192);fill-rule:nonzero;"/>
        </g>
        <g transform="matrix(-8.69851,0.0071013,-0.00546602,-6.69543,5171.94,3550.26)">
            <path d="M593.866,-22.702L650.852,155.293L580.509,68.125L593.866,-22.702Z" style="fill:rgb(45,189,180);fill-rule:nonzero;"/>
        </g>
        <g transform="matrix(-8.69851,0.0071013,-0.00546602,-6.69543,5171.94,3550.26)">
            <path d="M498.939,85.141L650.852,155.293L580.509,68.125L498.939,85.141Z" style="fill:rgb(23,166,152);fill-rule:nonzero;"/>
        </g>
        <g transform="matrix(-8.69851,0.0071013,-0.00546602,-6.69543,5171.94,3550.26)">
            <path d="M594.594,-25.854C593.08,-21.334 498.939,85.141 498.939,85.141L580.509,68.125L594.594,-25.854Z" style="fill:rgb(93,197,192);fill-rule:nonzero;"/>
        </g>
        <g transform="matrix(-8.69851,0.0071013,-0.00546602,-6.69543,5171.94,3550.26)">
            <path d="M593.866,-22.702L650.852,155.293L580.509,68.125L593.866,-22.702Z" style="fill:rgb(23,166,152);fill-rule:nonzero;"/>
        </g>
        <g transform="matrix(-8.69851,0.0071013,-0.00546602,-6.69543,5171.94,3550.26)">
            <path d="M498.939,85.141L650.852,155.293L580.509,68.125L498.939,85.141Z" style="fill:rgb(45,189,180);fill-rule:nonzero;"/>
        </g>
        <g transform="matrix(-8.69851,0.0071013,-0.00546602,-6.69543,5171.94,3550.26)">
            <path d="M594.059,-22.097L554.094,-35.962L498.939,85.141L594.059,-22.097Z" style="fill:rgb(45,189,180);fill-rule:nonzero;"/>
        </g>
        <g transform="matrix(-8.69851,0.0071013,-0.00546602,-6.69543,5171.94,3550.26)">
            <path d="M594.059,-22.097L554.094,-35.962L498.939,85.141L594.059,-22.097Z" style="fill:rgb(45,189,180);fill-rule:nonzero;"/>
        </g>
    </g>
</svg>
